<svg xmlns="http://www.w3.org/2000/svg" fill="none" viewBox="0 0 40 40"><path fill="#000" fill-rule="evenodd" d="M30.235 39.884a2.491 2.491 0 0 1-1.781-.73L12.7 24.78l-3.46 2.624-3.406 2.582a1.665 1.665 0 0 1-1.082.338 1.664 1.664 0 0 1-1.046-.431l-2.2-2a1.666 1.666 0 0 1 0-2.463L7.458 20 4.67 17.453 1.507 14.57a1.665 1.665 0 0 1 0-2.463l2.2-2a1.665 1.665 0 0 1 2.13-.097l6.863 5.209L28.452.844a2.488 2.488 0 0 1 1.841-.729c.351.009.699.091 1.019.245l8.236 3.961a2.5 2.5 0 0 1 1.415 2.253v.099-.045V33.37v-.045.095a2.501 2.501 0 0 1-1.416 2.257l-8.235 3.961a2.492 2.492 0 0 1-1.077.246Zm.716-28.947-11.948 9.062 11.952 9.065-.004-18.127Z" clip-rule="evenodd" opacity=".3"/></svg>